# xmcd CD database file
#
# Track frame offsets:
#	150
#	15335
#	26205
#	37568
#	61550
#	82347
#	97713
#	121298
#	139817
#	154525
#	171095
#
# Disc length: 2533 seconds
#
# Revision: 0
# Processed by: cddbd v1.5.1PL0 Copyright (c) Steve Scherf et al.
# Submitted via: CDex 1.51
#
DISCID=7509e30b
DTITLE=THE MODS - LIVE WITH ROCK'N'ROLL
DYEAR=2004
DGENRE=Rock and Roll
TTITLE0=GO MAD BUNNY
TTITLE1=DO YOU LOVE ME
TTITLE2=BLACK BUS DRIVIN'
TTITLE3=LIVE WITH ROCK'N'ROLL
TTITLE4=THE MAN OF THE MATCH
TTITLE5=FIREBIRD NEVER FALL
TTITLE6=SWEET LITTLE REVOLUTION
TTITLE7=SUN BEAM POISON
TTITLE8=DILEMMA(You Face It)
TTITLE9=BAMBI
TTITLE10=TIME WAITS BY YOUR SIDE
EXTD=YEAR: 2004
EXTT0=
EXTT1=
EXTT2=
EXTT3=
EXTT4=
EXTT5=
EXTT6=
EXTT7=
EXTT8=
EXTT9=
EXTT10=
PLAYORDER=
